Patient4_TMGait_0pt8_01_left_32_EMG.mot
version=1
nRows=36
nColumns=33
inDegrees=no
endheader
time	1LAddLong	2LGlutMax	3LGlutMed	4LIliopsoas	5LSemiMemb	6LBicFemLong	7LRecFem	8LVastMed	9LVastLat	10LGasMed	11LTibAnt	12lTibPost	13LPeroneusLong	14LSol	15LExtDigLong	16LFlexDigLong	17RAddLong	18RGlutMax	19RGlutMed	20RIliopsoas	21RSemiMemb	22RBicFemLong	23RRecFem	24RVastMed	25RVastLat	26RGasMed	27RTibAnt	28RTibPost	29RPeroneusLong	30RSol	31RExtDigLong	32RFlexDigLong
36.403	0.027008	-0.3981	-0.012817	0.025177	0.11032	-0.010834	-0.049286	-0.007324	0.11063	-0.10101	0.018921	0.007172	0.1387	-0.21042	-0.002747	0.003662	-0.009613	-0.048523	0.45563	0.1239	0.007782	-0.019226	-0.23895	-0.16098	-0.18127	-0.027466	0.036926	-0.003662	-0.12619	-0.031891	-0.000305	-0.009613
36.404	0.019073	-0.28412	-0.021973	0.016327	0.064392	0.023651	-0.069427	-0.006256	0.11124	-0.073395	0.003052	0.001068	0.02182	-0.048523	-0.019073	0.007629	0.020447	-0.10407	0.4509	0.020294	0.001526	-0.025482	-0.38864	-0.063629	-0.45975	-0.029602	0.099335	-0.011597	-0.068359	-0.29968	-0.001831	-0.005188
36.405	0.011139	-0.20218	-0.054474	0.018921	0.031281	0.040894	-0.061798	-0.005951	0.1471	-0.039978	0.022278	0.003204	0.03418	0.041962	-0.025787	0.007172	0.016632	-0.14175	0.45853	-0.064697	0.00824	-0.001678	-0.58563	0.20554	-0.25665	-0.029449	0.30685	-0.008087	-0.12985	-0.29022	-0.003052	-0.009003
36.406	0.016937	-0.16968	-0.034637	0.008392	0.014496	0.067596	-0.080109	0.002136	0.13855	-0.020142	0.019684	0.005188	0.034485	0.035706	0.032043	-0.000916	0.011292	-0.13214	0.6282	-0.16907	0.013123	0.012512	-0.44907	0.45532	-0.21271	-0.017395	0.3949	-0.005951	-0.065002	-0.28381	-0.003357	-0.005951
36.407	0.027924	-0.12772	-0.053711	0.01358	0.002899	0.085144	-0.088806	0.003204	0.099792	0.031891	0.027008	0.002441	0.04715	-0.00946	0.046387	0.009308	0.018463	-0.19928	0.69504	-0.17273	-0.003204	-0.042114	0.056152	0.27908	-0.29053	-0.024719	0.59052	-0.005188	-0.089569	-0.23392	-0.003052	-0.013733
36.408	-0.031891	-0.051117	-0.11459	0.000153	-0.012817	0.098419	-0.10544	0.005493	0.09201	0.039215	0.022888	0.002289	0.077667	0.070343	-0.00351	0.005798	0.021362	-0.22629	0.89584	-0.08194	-0.018768	-0.032043	0.1648	0.21896	-0.58945	-0.028687	0.84534	-0.004883	-0.02655	-0.29114	-0.003052	-0.014191
36.409	-0.023346	-0.005951	-0.15228	0.010223	0.008545	0.097809	-0.13519	0.005341	0.098267	0.042419	0.040588	0.001678	0.071564	0.046234	-0.01236	0.011444	-0.00061	-0.21561	0.96313	0.086975	-0.015411	-0.007629	-0.20477	0.30655	-0.40085	-0.021973	0.69885	-0.007019	0.15121	-0.31326	-0.003357	-0.009766
36.41	0.066681	0.10452	-0.1857	0.021057	-0.007019	0.070038	-0.10178	0.005646	0.13214	0.012817	0.019989	0.004883	0.057831	0.043335	-0.006409	0.004883	-0.016785	-0.23697	0.49622	0.17471	-0.006104	0.01358	-0.16571	0.19852	-0.05722	-0.014954	0.14465	-0.013123	0.14511	-0.25146	-0.002441	-0.016632
36.411	-0.00351	0.22079	-0.14282	0.001984	-0.001526	0.024414	-0.096741	0.005646	0.15518	-0.010223	0.001984	0.011749	-0.009308	0.046844	-0.009003	0.007172	-0.007629	-0.28366	0.26276	0.15427	-0.003357	0.019531	-0.003357	-0.061188	0.027771	-0.011292	0.12283	-0.010376	0.32562	-0.29511	-0.001221	-0.006714
36.412	-0.0177	0.2298	-0.037842	0.010376	-0.018616	0.054626	-0.10574	0.001526	0.17792	-0.021057	0.008545	0.003204	0.010986	0.006409	-0.016937	0.006409	-0.013123	-0.23834	0.44983	0.20035	-0.001526	0.028534	-0.20294	-0.090179	0.075836	-0.013123	-1.1066	-0.007629	0.23377	-0.21561	-0.000763	-0.00946
36.413	0.011444	0.23331	-0.080872	0.011139	-0.00473	0.044556	-0.096283	0.000763	0.19089	-0.018005	0.003204	0.003357	0.034637	-0.014038	-0.039673	0.002899	-0.015564	-0.3183	0.12924	0.1033	-0.000305	0.027008	-0.22492	-0.10147	0.15381	-0.018463	-1.3361	-0.014191	0.28458	-0.051575	-0.000763	-0.00412
36.414	0.015106	0.23346	0.047455	-0.002747	0.004578	0.050354	-0.080566	0.003357	0.18906	-0.030975	0.005493	0.007172	0.014343	-0.051117	-0.007935	-0.000763	-0.007782	-0.28412	0.45563	-0.062714	-0.011292	0.020294	-0.1033	0.036774	0.19196	-0.016785	-0.61401	-0.007477	-0.51773	-0.11078	0	-0.016479
36.415	0.002289	0.26474	0.061035	-0.009155	0.007019	0.068359	-0.066376	0.009613	0.18265	-0.038452	0.015717	-0.00061	0.02243	-0.040588	0.005493	-0.000458	-0.01709	-0.31738	0.67627	-0.18646	-0.002136	0.031586	-0.40497	0.072479	0.17548	-0.013123	-0.31403	-0.009155	-0.73944	-0.13641	-0.001068	-0.015717
36.416	-0.00885	0.26291	0.045166	0.003204	-0.004272	0.039063	-0.076599	0.001526	0.15198	-0.047913	0.012512	0.000305	0.05249	-0.0383	0.001984	0.00061	-0.001373	-0.31708	0.8696	-0.16769	-0.001221	0.018005	-0.50934	0.10529	0.03479	-0.011597	-0.24017	-0.008545	-1.3045	0.031891	-0.002747	-0.007935
36.417	-0.016632	0.27268	-0.02655	0.039673	-0.025024	0.024567	-0.051575	0.00351	0.12848	-0.036621	0.011292	-0.006866	0.077362	-0.029144	0.014038	0.009155	0.026398	-0.31769	0.5246	-0.04364	-0.034485	-0.023499	-0.25421	0.00824	-0.53863	-0.013123	-0.19424	-0.009003	0.042725	0.044403	-0.002747	-0.018921
36.418	-0.00351	0.25436	-0.11337	0.011749	-0.04364	-0.014801	-0.051117	-0.005188	0.11383	-0.024109	0.002136	0.006561	0.06424	0.02655	0.012054	0.000763	0.018616	-0.34714	0.26077	0.086365	-0.085602	0.030975	-0.099945	0.001678	-0.14999	-0.015869	-0.046539	-0.007782	0.74173	0.019226	0.002441	-0.014954
36.419	0.016785	0.25131	-0.21683	-0.001678	-0.017548	-0.064392	-0.05127	0.000763	0.1181	-0.041962	0.020447	-0.003204	0.04837	0.025024	-0.034943	-0.000458	-0.018005	-0.40543	0.37888	0.11505	-0.10895	0.045624	-0.08255	0.13321	-0.05127	-0.02533	0.097351	-0.017548	0.34683	0.099182	-0.001068	-0.015259
36.42	0.018158	0.31067	-0.18616	0.012207	0.027466	-0.037994	-0.022278	-0.006714	0.12726	-0.041809	0.026245	0.000153	0.00885	0.024719	-0.033112	0.005035	0.000305	-0.39673	0.20309	0.13367	-0.010986	0.029602	-0.036163	0.11856	-0.056763	-0.02121	0.12116	-0.016937	-0.13733	0.014191	-0.003204	-0.013885
36.421	0.022278	0.31525	0.087433	0.027161	0.023499	-0.020905	-0.009766	-0.002136	0.12802	-0.04425	0.023041	0.002289	0.009766	0.01358	-0.018158	-0.005646	0.009918	-0.2948	0.3154	-0.024567	-0.009003	0.016479	0.025177	0.044403	-0.041199	-0.020905	0.00946	-0.014038	-0.12589	0.040894	0	-0.003967
36.422	0.0354	0.30823	0.16388	-0.000763	0.026398	0.037231	-0.025482	-0.002594	0.13626	-0.052795	0.004272	0.001831	0.023499	-0.020447	0.002136	-0.005035	0.002441	-0.31769	0.40741	-0.20584	-0.042419	0.044708	0.028992	0.059357	-0.039215	-0.029755	-0.040436	-0.011139	0.03006	0.051117	0	-0.00885
36.423	0.0177	0.37064	0.063934	0.010986	0.038757	0.080109	-0.012665	-0.004883	0.13565	-0.038147	-0.005951	0.003052	0.044403	-0.033417	0.044861	-0.008698	0.010071	-0.31342	0.6691	-0.16968	-0.048828	0.047455	-0.009766	-0.072784	-0.11322	-0.03006	-0.061646	-0.011444	0.11353	0.06485	0.001221	-0.003662
36.424	0.005798	0.50003	0.032654	0.016632	0.04425	0.092316	-0.0354	0.006104	0.11856	-0.032806	0.004272	-0.001068	0.04776	-0.027313	0.034485	-0.003052	0.002747	-0.24841	0.55924	-0.11688	-0.052338	0.073242	-0.18784	-0.27069	-0.12466	-0.026093	-0.059967	-0.010376	0.089111	0.00824	0.001678	-0.008545
36.425	0.007172	0.60638	0.081024	0.010071	0.010376	0.068512	-0.017548	-0.000763	0.11368	-0.04303	-0.005951	-0.005188	0.039368	-0.021515	0.014343	-0.011292	-0.001373	-0.27969	0.55725	0.019989	-0.070648	0.071106	-0.23361	-0.49042	-0.16083	-0.025024	0.038147	-0.010529	0.061646	-0.060577	-0.001221	-0.010071
36.426	0.00946	0.63019	0.082855	0.001984	0.00946	0.023041	-0.014191	-0.001221	0.10086	-0.032654	0.004883	-0.003967	0.043488	-0.04364	0.028381	-0.010376	-0.006561	-0.32837	0.26321	0.15518	-0.060272	0.046082	-0.41611	-0.42206	-0.14847	-0.029907	0.098419	-0.009155	-0.040588	-0.10941	-0.001984	-0.025177
36.427	0.002899	0.70236	0.050201	0.01297	-0.049591	-0.047607	-0.03006	-0.003662	0.091858	-0.02533	0.019684	-0.000458	0.030212	-0.011444	0.02533	0.000916	-0.034485	-0.383	-0.16586	0.1358	-0.062408	0.089722	-0.5629	-0.24826	-0.01358	-0.016937	0.058594	-0.008087	-0.019989	0.09552	-0.001831	-0.006409
36.428	0.005646	0.77652	-0.001221	0.019379	-0.005798	-0.0177	-0.03479	0.002136	0.081329	-0.026245	0.032501	0.000916	0.025024	-0.017853	0.014954	-0.010834	-0.010376	-0.38086	0.18753	0.066833	-0.062714	0.087585	-0.38315	-0.10269	0.11597	-0.015259	0	-0.015411	0.077057	0.19089	-0.00473	-0.017242
36.429	0.004272	0.76721	-0.018158	0.008698	-0.041656	0.011139	-0.047302	0.00351	0.072937	-0.014648	0.005493	0.002747	0.033722	-0.042725	-0.006561	-0.003204	0.009613	-0.36331	0.60745	-0.018311	-0.082397	0.072479	-0.18234	-0.063629	0.1683	-0.023956	0.043488	-0.009308	0.055389	0.098419	-0.002747	-0.014038
36.43	-0.002136	0.76218	-0.045929	0.019226	-0.061951	0.028229	-0.057068	0.002899	0.064697	-0.012512	0.015869	-0.003662	0.034637	-0.025024	0.007935	-0.012665	0.013123	-0.42511	0.87799	0.072021	-0.079651	0.078583	-0.12024	-0.14801	0.068817	-0.026245	0.10223	-0.013428	-0.014496	0.001221	-0.002899	-0.017242
36.431	0.007629	0.78003	-0.058594	0.029144	-0.030365	-0.039978	-0.057831	0.002136	0.067291	-0.025787	0.013275	-0.002594	0.02533	-0.072327	-0.003052	-0.00351	0.010834	-0.47974	0.6221	0.12787	-0.07431	0.078735	-0.25818	-0.23239	-0.031281	-0.023193	0.097961	-0.010376	-0.028992	-0.044556	-0.004272	-0.025787
36.432	0.011749	0.75104	-0.054626	0.010223	-0.000305	-0.057678	-0.066223	0.003204	0.066833	-0.031738	0.008698	0.009766	0.031738	-0.16052	-0.014954	-0.00473	0	-0.42694	0.1506	0.090179	-0.070648	0.11063	-0.3952	-0.11993	-0.038452	-0.021515	0.23178	-0.013123	-0.039215	-0.047302	-0.001984	-0.014038
36.433	0.007477	0.73929	-0.049286	0.019684	-0.025024	0.028687	-0.057831	-0.000458	0.075989	-0.031128	0.021973	0.002136	0.034027	-0.23056	-0.007019	-0.005188	0.003662	-0.44495	-0.19348	-0.016479	-0.084381	0.092621	-0.1535	-0.011749	0.046539	-0.025177	0.59341	-0.013275	-0.085449	-0.061493	-0.000458	-0.016022
36.434	0.017395	0.69992	-0.041351	0.010376	-0.089569	0.038757	-0.072021	0.00412	0.06134	-0.029449	0.031433	0.006409	0.036774	-0.20187	0.003204	-0.009003	0.001373	-0.47195	-0.21957	-0.008545	-0.093384	0.092163	0.19073	0.014496	-0.023651	-0.03006	0.75882	-0.014954	-0.11765	-0.15625	-0.00061	-0.020142
36.435	0.023346	0.70618	-0.069733	0.022278	-0.050812	0.016785	-0.058594	-0.005798	0.047913	-0.039673	0.028229	0.006256	0.018158	-0.039063	0.005188	-0.00061	0.010834	-0.45013	0.21881	0.1535	-0.088959	0.078583	0.21179	0.20508	-0.086212	-0.02655	0.73944	-0.010529	-0.10773	-0.13626	-0.007477	-0.009918
36.436	0.027313	0.67551	-0.097656	0.001831	0.041199	0.031891	-0.059814	-0.00061	0.046539	-0.028992	0.01236	0.014954	0.025177	-0.051117	-0.005951	-0.003662	0.003967	-0.47394	-0.039063	0.23132	-0.096741	0.10681	0.233	0.26749	-0.15152	-0.016479	0.29663	-0.006714	0.12497	-0.28305	-0.00412	-0.000458
36.437	0.021362	0.64285	-0.11734	0.001526	0.071564	0.10529	-0.062256	0.001526	0.053711	-0.027161	0.023193	0.006714	0.030975	-0.1181	-0.011139	0.000153	-0.001831	-0.41916	-0.19226	0.14496	-0.084839	0.10864	0.20874	0.14084	-0.063324	-0.003967	-0.73639	-0.007629	0.26901	-0.28122	-0.002289	0.001373
36.438	0.014801	0.63767	-0.11475	0.013733	0.046692	0.12192	-0.057068	0.003357	0.059509	-0.028687	0.025635	0	0.03067	-0.12299	-0.008545	0.004425	-0.023499	-0.39734	-0.31509	0.10376	-0.07431	0.1474	0.18509	0.040588	0.079193	-0.009003	-1.4388	-0.010376	0.21133	-0.048981	-0.001831	0.004578
